<svg width="10" height="18" viewBox="0 0 10 18" fill="none" xmlns="http://www.w3.org/2000/svg">
<path d="M9.9952 11.9017L9.996 11.9708C9.99729 12.9264 9.61552 13.8477 8.9264 14.5518L8.9288 14.5488C8.21113 15.2904 7.24024 15.7742 6.18321 15.917L6.15841 15.92V17.6902C6.15841 17.7724 6.1236 17.8512 6.06164 17.9093C5.99968 17.9674 5.91564 18 5.82801 18H5.81441H4.36961C4.27891 17.999 4.19222 17.9648 4.12808 17.9047C4.06395 17.8445 4.02745 17.7633 4.02641 17.6782V15.92C3.54431 15.8597 3.0706 15.7506 2.61362 15.5945L2.66082 15.6087C1.97806 15.3948 1.3375 15.077 0.764822 14.6681L0.780822 14.6793C0.606328 14.5601 0.43838 14.4327 0.277623 14.2975L0.283223 14.302C0.194157 14.222 0.131757 14.162 0.0960238 14.122C0.0381871 14.0681 0.00403961 13.9958 0.00033611 13.9194C-0.00336739 13.843 0.0236428 13.7681 0.0760239 13.7095L0.0752239 13.7102L1.17842 12.3541C1.20791 12.3188 1.24507 12.2899 1.28742 12.2692C1.32977 12.2485 1.37634 12.2365 1.42402 12.234H1.42482C1.47226 12.2258 1.52121 12.2299 1.56634 12.2459C1.61148 12.2619 1.65107 12.2892 1.68082 12.3248L1.68162 12.3255L1.70242 12.3451C2.42579 12.966 3.31103 13.397 4.26881 13.5947L4.30561 13.6015C4.54401 13.6525 4.81761 13.6817 5.09841 13.6817L5.14801 13.6825C5.70081 13.6825 6.21281 13.5204 6.63441 13.2444L6.62561 13.2497C6.83809 13.1147 7.01021 12.9311 7.12559 12.7161C7.24098 12.5012 7.29579 12.2622 7.28481 12.0218V12.0248C7.28481 11.8275 7.22481 11.6437 7.12161 11.4884L7.12401 11.4929C7.02687 11.3378 6.90644 11.1966 6.76641 11.0736L6.76561 11.0729C6.57961 10.9267 6.37514 10.8025 6.15681 10.7031L6.13921 10.6956C5.85334 10.5586 5.61868 10.4513 5.43521 10.3738C5.25174 10.2963 4.96615 10.1875 4.57841 10.0475C4.30001 9.94051 4.08028 9.85675 3.91921 9.79624C3.75815 9.73573 3.53842 9.64697 3.26002 9.52995C2.98162 9.41294 2.75842 9.30918 2.59042 9.21867C2.42242 9.12816 2.22055 9.00939 1.98482 8.86237C1.77896 8.73676 1.58588 8.59364 1.40802 8.43482L1.40882 8.43557C1.24778 8.2833 1.09556 8.12306 0.952822 7.95551L0.942422 7.94351C0.791191 7.77114 0.665519 7.58039 0.568823 7.37644L0.562423 7.36069C0.468765 7.15377 0.395135 6.93938 0.342423 6.72011L0.336823 6.69311C0.275961 6.44157 0.245369 6.18443 0.245623 5.92651V5.88601C0.245623 4.94839 0.646423 4.09778 1.29682 3.47821L1.29602 3.47896C2.02043 2.7716 2.96806 2.30118 3.99921 2.13704L4.02801 2.13329V0.318819C4.02801 0.231058 4.06721 0.151548 4.12961 0.0952912C4.16007 0.0647031 4.19701 0.0404263 4.23807 0.0240205C4.27913 0.00761472 4.32339 -0.000557281 4.36801 2.95029e-05H5.82961C6.01201 2.95029e-05 6.16001 0.138797 6.16001 0.309818V0.322569V2.08979C6.60001 2.13329 7.00161 2.21505 7.38641 2.33207L7.34401 2.32082C7.71121 2.42583 8.02 2.54059 8.3168 2.67411L8.2752 2.65761C8.5376 2.77987 8.7608 2.90514 8.972 3.04465L8.956 3.03415C9.16934 3.17517 9.30854 3.27218 9.3736 3.32519C9.43867 3.3782 9.49227 3.42495 9.5344 3.46546C9.59195 3.51191 9.62916 3.57665 9.63891 3.64725C9.64865 3.71786 9.63024 3.78935 9.5872 3.848L9.588 3.84725L8.7224 5.31443C8.70109 5.35973 8.66691 5.39866 8.6236 5.42697C8.58028 5.45528 8.5295 5.47188 8.4768 5.47495C8.426 5.48498 8.37262 5.48383 8.32237 5.47159C8.27213 5.45936 8.22559 5.43638 8.1864 5.40445H8.1872C8.16587 5.38444 8.11414 5.34444 8.032 5.28443C7.94987 5.22442 7.81067 5.13566 7.61441 5.01815C7.42363 4.90426 7.22567 4.8013 7.02161 4.70986L6.98801 4.69636C6.7418 4.59008 6.48582 4.50497 6.22321 4.44208L6.18961 4.43533C5.89147 4.35843 5.58363 4.31958 5.27441 4.31981C4.68194 4.29427 4.09558 4.44783 3.60322 4.75787L3.61362 4.75187C3.34115 4.92145 3.13837 5.17293 3.03862 5.46495C2.93888 5.75697 2.94812 6.07212 3.06482 6.35856L3.06162 6.34956C3.13522 6.51458 3.24242 6.6541 3.37682 6.76586L3.37842 6.76661C3.50748 6.88013 3.64428 6.98789 3.78882 7.0899L3.80162 7.09816C3.97361 7.20917 4.17121 7.31343 4.37841 7.40044L4.40241 7.40944C4.67015 7.52646 4.88615 7.61697 5.05041 7.68098C5.21468 7.74499 5.46481 7.837 5.80081 7.95701C6.17948 8.09103 6.46881 8.19654 6.66881 8.27355C6.86881 8.35056 7.14027 8.46782 7.48321 8.62534C7.77213 8.75244 8.0505 8.89962 8.316 9.06565L8.2928 9.05215C8.5408 9.21717 8.7568 9.38219 8.9624 9.55846L8.9576 9.55396C9.18 9.73598 9.36693 9.94476 9.5184 10.1803L9.5256 10.1923C9.6584 10.4121 9.7728 10.6678 9.856 10.9356L9.8632 10.9611C9.9504 11.2349 10 11.55 10 11.8755V11.907V11.9055L9.9952 11.9017Z" fill="#00FF00"/>
</svg>
